<?xml version="1.0" standalone="no"?><!DOCTYPE svg PUBLIC "-//W3C//DTD SVG 1.1//EN" "http://www.w3.org/Graphics/SVG/1.1/DTD/svg11.dtd"><svg t="1559705345331" class="icon" style="" viewBox="0 0 1024 1024" version="1.1" xmlns="http://www.w3.org/2000/svg" p-id="4658" xmlns:xlink="http://www.w3.org/1999/xlink" width="200" height="200"><defs><style type="text/css"></style></defs><path d="M182.9 694.4h-64.1c-4.4 0-6.6 4.4-6.6 6.6 0 4.4 4.4 6.6 8.8 6.6h64.1c2.2 0 4.4 0 4.4-2.2 2.2-2.2 2.2-4.4 2.2-6.6-2.2 0-4.4-4.4-8.8-4.4zM426 694.4H231.5c-4.4 0-6.6 4.4-6.6 6.6 0 4.4 4.4 6.6 6.6 6.6H426c2.2 0 4.4 0 4.4-2.2 2.2-2.2 2.2-4.4 2.2-6.6 0.1 0-2.1-4.4-6.6-4.4z" fill="#FFFFFF" p-id="4659"></path><path d="M837.1 188.2H463.6l-46.4-61.9c-4.4-4.4-8.8-8.8-15.5-8.8H189.5C123.2 117.5 68 170.5 68 239v459.7c0 66.3 53 121.6 121.6 121.6h649.8c66.3 0 121.6-53 121.6-121.6v-389c-2.3-66.2-57.5-121.5-123.9-121.5z" fill="#429BCF" p-id="4660"></path><path d="M114.4 208.1h775.8v68.5H114.4z" fill="#FFFFFF" p-id="4661"></path><path d="M861.5 254.5H461.4l-48.6-66.3c-4.4-4.4-11.1-8.8-17.7-8.8H165.2c-70.7 0-130.4 57.5-130.4 130.4v495.1c0 70.7 57.5 130.4 130.4 130.4h696.2c70.7 0 130.4-57.5 130.4-130.4v-420c0.1-72.9-59.6-130.4-130.3-130.4z" fill="#83C6EF" p-id="4662"></path><path d="M990.1 364.2c-10.1-62.8-64.7-109.7-128.6-109.7H461.4l-48.6-66.3c-4.4-4.4-11.1-8.8-17.7-8.8H165.2c-70.7 0-130.4 57.5-130.4 130.4v54.4h955.3z" fill="#D2EDF7" p-id="4663"></path><path d="M990.1 364.2c-10.1-62.8-64.7-109.7-128.6-109.7H461.4l-48.6-66.3c-4.4-4.4-11.1-8.8-17.7-8.8H165.2c-70.7 0-130.4 57.5-130.4 130.4v54.4h955.3z" fill="#D2EDF7" p-id="4664"></path></svg>